<svg xmlns="http://www.w3.org/2000/svg" viewBox="0 0 200 200" fill="none">
  <path d="M45 130 C45 90, 70 65, 100 62 C130 65, 155 90, 155 130" fill="#1a1a1a"/>
  <path d="M100 62 C130 65, 155 90, 155 130 L100 130 Z" fill="#333"/>
  <path d="M50 130 C50 95, 72 72, 100 68 C128 72, 150 95, 150 130" fill="#222"/>
  <ellipse cx="100" cy="130" rx="55" ry="12" fill="#1a1a1a"/>
  <path d="M45 130 L25 125 C20 123, 18 118, 25 110 L55 100" fill="#1a1a1a" stroke="#111" stroke-width="1"/>
  <circle cx="100" cy="62" r="5" fill="#222"/>
  <line x1="100" y1="68" x2="100" y2="130" stroke="#2a2a2a" stroke-width="0.5"/>
</svg>
